<mxfile host="65bd71144e">
    <diagram id="o7o1J_wpwB9Cr8JrxtlP" name="Page-1">
        <mxGraphModel dx="942" dy="392" grid="1" gridSize="10" guides="1" tooltips="1" connect="1" arrows="1" fold="1" page="1" pageScale="1" pageWidth="827" pageHeight="1169" math="0" shadow="0">
            <root>
                <mxCell id="0"/>
                <mxCell id="1" parent="0"/>
                <mxCell id="dZcRFRpZDF-fULqlXCUv-1" value="" style="whiteSpace=wrap;html=1;fillColor=#1ba1e2;fontColor=#ffffff;strokeColor=#006EAF;rounded=1;" parent="1" vertex="1">
                    <mxGeometry x="80" y="420" width="630" height="110" as="geometry"/>
                </mxCell>
                <mxCell id="dZcRFRpZDF-fULqlXCUv-2" value="" style="endArrow=none;dashed=1;html=1;fillColor=#d80073;strokeColor=#FF0000;strokeWidth=8;" parent="1" edge="1">
                    <mxGeometry width="50" height="50" relative="1" as="geometry">
                        <mxPoint x="10" y="410" as="sourcePoint"/>
                        <mxPoint x="780" y="410" as="targetPoint"/>
                    </mxGeometry>
                </mxCell>
                <mxCell id="dZcRFRpZDF-fULqlXCUv-3" value="" style="whiteSpace=wrap;html=1;fillColor=#d80073;fontColor=#ffffff;strokeColor=#A50040;rounded=1;" parent="1" vertex="1">
                    <mxGeometry x="80" y="320" width="430" height="80" as="geometry"/>
                </mxCell>
                <mxCell id="dZcRFRpZDF-fULqlXCUv-4" value="" style="whiteSpace=wrap;html=1;fillColor=#a0522d;fontColor=#ffffff;strokeColor=#6D1F00;rounded=1;" parent="1" vertex="1">
                    <mxGeometry x="520" y="50" width="90" height="350" as="geometry"/>
                </mxCell>
                <mxCell id="dZcRFRpZDF-fULqlXCUv-7" value="硬件" style="text;html=1;strokeColor=none;fillColor=none;align=center;verticalAlign=middle;whiteSpace=wrap;rounded=1;" parent="1" vertex="1">
                    <mxGeometry x="10" y="460" width="60" height="30" as="geometry"/>
                </mxCell>
                <mxCell id="dZcRFRpZDF-fULqlXCUv-8" value="操作系统" style="text;html=1;strokeColor=none;fillColor=none;align=center;verticalAlign=middle;whiteSpace=wrap;rounded=1;" parent="1" vertex="1">
                    <mxGeometry x="10" y="345" width="60" height="30" as="geometry"/>
                </mxCell>
                <mxCell id="dZcRFRpZDF-fULqlXCUv-9" value="" style="whiteSpace=wrap;html=1;fillColor=#60a917;fontColor=#ffffff;strokeColor=#2D7600;rounded=1;" parent="1" vertex="1">
                    <mxGeometry x="80" y="220" width="430" height="90" as="geometry"/>
                </mxCell>
                <mxCell id="dZcRFRpZDF-fULqlXCUv-11" value="框架" style="text;html=1;strokeColor=none;fillColor=none;align=center;verticalAlign=middle;whiteSpace=wrap;rounded=1;" parent="1" vertex="1">
                    <mxGeometry x="10" y="245" width="60" height="30" as="geometry"/>
                </mxCell>
                <mxCell id="dZcRFRpZDF-fULqlXCUv-13" value="Application" style="whiteSpace=wrap;html=1;fillColor=#fa6800;fontColor=#000000;strokeColor=#C73500;rounded=1;" parent="1" vertex="1">
                    <mxGeometry x="80" y="50" width="430" height="50" as="geometry"/>
                </mxCell>
                <mxCell id="dZcRFRpZDF-fULqlXCUv-15" value="" style="whiteSpace=wrap;html=1;fillColor=#6a00ff;fontColor=#ffffff;strokeColor=#3700CC;rounded=1;" parent="1" vertex="1">
                    <mxGeometry x="80" y="110" width="430" height="100" as="geometry"/>
                </mxCell>
                <mxCell id="dZcRFRpZDF-fULqlXCUv-16" value="中间件" style="text;html=1;strokeColor=none;fillColor=none;align=center;verticalAlign=middle;whiteSpace=wrap;rounded=1;" parent="1" vertex="1">
                    <mxGeometry x="10" y="150" width="60" height="30" as="geometry"/>
                </mxCell>
                <mxCell id="dZcRFRpZDF-fULqlXCUv-17" value="应用" style="text;html=1;strokeColor=none;fillColor=none;align=center;verticalAlign=middle;whiteSpace=wrap;rounded=1;" parent="1" vertex="1">
                    <mxGeometry x="10" y="60" width="60" height="30" as="geometry"/>
                </mxCell>
                <mxCell id="dZcRFRpZDF-fULqlXCUv-18" value="语言" style="text;html=1;strokeColor=none;fillColor=none;align=center;verticalAlign=middle;whiteSpace=wrap;rounded=1;" parent="1" vertex="1">
                    <mxGeometry x="530" y="50" width="60" height="30" as="geometry"/>
                </mxCell>
                <mxCell id="dZcRFRpZDF-fULqlXCUv-19" value="" style="whiteSpace=wrap;html=1;fillColor=#6d8764;fontColor=#ffffff;strokeColor=#3A5431;rounded=1;" parent="1" vertex="1">
                    <mxGeometry x="620" y="50" width="90" height="350" as="geometry"/>
                </mxCell>
                <mxCell id="dZcRFRpZDF-fULqlXCUv-20" value="共性" style="whiteSpace=wrap;html=1;rounded=1;" parent="1" vertex="1">
                    <mxGeometry x="530" y="90" width="70" height="30" as="geometry"/>
                </mxCell>
                <mxCell id="dZcRFRpZDF-fULqlXCUv-21" value="编译原理" style="whiteSpace=wrap;html=1;rounded=1;" parent="1" vertex="1">
                    <mxGeometry x="530" y="130" width="70" height="30" as="geometry"/>
                </mxCell>
                <mxCell id="dZcRFRpZDF-fULqlXCUv-22" value="C/C++" style="whiteSpace=wrap;html=1;rounded=1;" parent="1" vertex="1">
                    <mxGeometry x="530" y="170" width="70" height="30" as="geometry"/>
                </mxCell>
                <mxCell id="dZcRFRpZDF-fULqlXCUv-23" value="JAVA" style="whiteSpace=wrap;html=1;rounded=1;" parent="1" vertex="1">
                    <mxGeometry x="530" y="210" width="70" height="30" as="geometry"/>
                </mxCell>
                <mxCell id="dZcRFRpZDF-fULqlXCUv-24" value="Python" style="whiteSpace=wrap;html=1;rounded=1;" parent="1" vertex="1">
                    <mxGeometry x="530" y="245" width="70" height="30" as="geometry"/>
                </mxCell>
                <mxCell id="dZcRFRpZDF-fULqlXCUv-27" value="Go" style="whiteSpace=wrap;html=1;rounded=1;" parent="1" vertex="1">
                    <mxGeometry x="530" y="280" width="70" height="30" as="geometry"/>
                </mxCell>
                <mxCell id="dZcRFRpZDF-fULqlXCUv-28" value="JavaScript" style="whiteSpace=wrap;html=1;rounded=1;" parent="1" vertex="1">
                    <mxGeometry x="530" y="320" width="70" height="30" as="geometry"/>
                </mxCell>
                <mxCell id="dZcRFRpZDF-fULqlXCUv-29" value="...." style="whiteSpace=wrap;html=1;rounded=1;" parent="1" vertex="1">
                    <mxGeometry x="530" y="360" width="70" height="30" as="geometry"/>
                </mxCell>
                <mxCell id="dZcRFRpZDF-fULqlXCUv-30" value="数据库" style="whiteSpace=wrap;html=1;rounded=1;" parent="1" vertex="1">
                    <mxGeometry x="100" y="120" width="70" height="30" as="geometry"/>
                </mxCell>
                <mxCell id="dZcRFRpZDF-fULqlXCUv-31" value="消息队列" style="whiteSpace=wrap;html=1;rounded=1;" parent="1" vertex="1">
                    <mxGeometry x="180" y="120" width="70" height="30" as="geometry"/>
                </mxCell>
                <mxCell id="dZcRFRpZDF-fULqlXCUv-33" value="缓存" style="whiteSpace=wrap;html=1;rounded=1;" parent="1" vertex="1">
                    <mxGeometry x="260" y="120" width="70" height="30" as="geometry"/>
                </mxCell>
                <mxCell id="dZcRFRpZDF-fULqlXCUv-34" value="搜索" style="whiteSpace=wrap;html=1;rounded=1;" parent="1" vertex="1">
                    <mxGeometry x="340" y="120" width="70" height="30" as="geometry"/>
                </mxCell>
                <mxCell id="dZcRFRpZDF-fULqlXCUv-35" value="日志" style="whiteSpace=wrap;html=1;rounded=1;" parent="1" vertex="1">
                    <mxGeometry x="420" y="120" width="70" height="30" as="geometry"/>
                </mxCell>
                <mxCell id="dZcRFRpZDF-fULqlXCUv-38" value="架构设计" style="text;html=1;strokeColor=none;fillColor=none;align=center;verticalAlign=middle;whiteSpace=wrap;rounded=1;" parent="1" vertex="1">
                    <mxGeometry x="635" y="50" width="60" height="30" as="geometry"/>
                </mxCell>
                <mxCell id="dZcRFRpZDF-fULqlXCUv-45" value="设计模式" style="whiteSpace=wrap;html=1;rounded=1;" parent="1" vertex="1">
                    <mxGeometry x="630" y="90" width="70" height="30" as="geometry"/>
                </mxCell>
                <mxCell id="dZcRFRpZDF-fULqlXCUv-46" value="微服务" style="whiteSpace=wrap;html=1;rounded=1;" parent="1" vertex="1">
                    <mxGeometry x="630" y="130" width="70" height="30" as="geometry"/>
                </mxCell>
                <mxCell id="dZcRFRpZDF-fULqlXCUv-47" value="运维监控" style="whiteSpace=wrap;html=1;rounded=1;" parent="1" vertex="1">
                    <mxGeometry x="100" y="165" width="70" height="30" as="geometry"/>
                </mxCell>
                <mxCell id="dZcRFRpZDF-fULqlXCUv-49" value="IOC" style="whiteSpace=wrap;html=1;rounded=1;" parent="1" vertex="1">
                    <mxGeometry x="100" y="230" width="70" height="30" as="geometry"/>
                </mxCell>
                <mxCell id="dZcRFRpZDF-fULqlXCUv-51" value="AOP" style="whiteSpace=wrap;html=1;rounded=1;" parent="1" vertex="1">
                    <mxGeometry x="180" y="230" width="70" height="30" as="geometry"/>
                </mxCell>
                <mxCell id="dZcRFRpZDF-fULqlXCUv-52" value="ORM" style="whiteSpace=wrap;html=1;rounded=1;" parent="1" vertex="1">
                    <mxGeometry x="260" y="230" width="70" height="30" as="geometry"/>
                </mxCell>
                <mxCell id="dZcRFRpZDF-fULqlXCUv-54" value="......" style="whiteSpace=wrap;html=1;rounded=1;" parent="1" vertex="1">
                    <mxGeometry x="340" y="230" width="70" height="30" as="geometry"/>
                </mxCell>
                <mxCell id="dZcRFRpZDF-fULqlXCUv-55" value="硬件管理" style="whiteSpace=wrap;html=1;rounded=1;" parent="1" vertex="1">
                    <mxGeometry x="90" y="330" width="60" height="60" as="geometry"/>
                </mxCell>
                <mxCell id="dZcRFRpZDF-fULqlXCUv-56" value="内存管理" style="whiteSpace=wrap;html=1;rounded=1;" parent="1" vertex="1">
                    <mxGeometry x="160" y="330" width="60" height="60" as="geometry"/>
                </mxCell>
                <mxCell id="dZcRFRpZDF-fULqlXCUv-58" value="任务管理" style="whiteSpace=wrap;html=1;rounded=1;" parent="1" vertex="1">
                    <mxGeometry x="230" y="330" width="60" height="60" as="geometry"/>
                </mxCell>
                <mxCell id="dZcRFRpZDF-fULqlXCUv-59" value="进程间通信" style="whiteSpace=wrap;html=1;rounded=1;" parent="1" vertex="1">
                    <mxGeometry x="300" y="330" width="60" height="60" as="geometry"/>
                </mxCell>
                <mxCell id="dZcRFRpZDF-fULqlXCUv-60" value="文件管理" style="whiteSpace=wrap;html=1;rounded=1;" parent="1" vertex="1">
                    <mxGeometry x="370" y="330" width="60" height="60" as="geometry"/>
                </mxCell>
                <mxCell id="dZcRFRpZDF-fULqlXCUv-61" value="网络" style="whiteSpace=wrap;html=1;rounded=1;" parent="1" vertex="1">
                    <mxGeometry x="440" y="330" width="60" height="60" as="geometry"/>
                </mxCell>
                <mxCell id="dZcRFRpZDF-fULqlXCUv-65" value="元器件" style="whiteSpace=wrap;html=1;rounded=1;" parent="1" vertex="1">
                    <mxGeometry x="90" y="440" width="70" height="30" as="geometry"/>
                </mxCell>
                <mxCell id="dZcRFRpZDF-fULqlXCUv-67" value="PCB" style="whiteSpace=wrap;html=1;rounded=1;" parent="1" vertex="1">
                    <mxGeometry x="170" y="440" width="70" height="30" as="geometry"/>
                </mxCell>
                <mxCell id="dZcRFRpZDF-fULqlXCUv-68" value="驱动" style="whiteSpace=wrap;html=1;rounded=1;" parent="1" vertex="1">
                    <mxGeometry x="250" y="440" width="70" height="30" as="geometry"/>
                </mxCell>
                <mxCell id="dZcRFRpZDF-fULqlXCUv-69" value="模组" style="whiteSpace=wrap;html=1;rounded=1;" parent="1" vertex="1">
                    <mxGeometry x="330" y="440" width="70" height="30" as="geometry"/>
                </mxCell>
                <mxCell id="dZcRFRpZDF-fULqlXCUv-71" value="......" style="whiteSpace=wrap;html=1;rounded=1;" parent="1" vertex="1">
                    <mxGeometry x="500" y="440" width="70" height="30" as="geometry"/>
                </mxCell>
                <mxCell id="dZcRFRpZDF-fULqlXCUv-72" value="指令集" style="whiteSpace=wrap;html=1;rounded=1;" parent="1" vertex="1">
                    <mxGeometry x="413.5" y="440" width="70" height="30" as="geometry"/>
                </mxCell>
                <mxCell id="dZcRFRpZDF-fULqlXCUv-76" value="......" style="whiteSpace=wrap;html=1;rounded=1;" parent="1" vertex="1">
                    <mxGeometry x="180" y="165" width="70" height="30" as="geometry"/>
                </mxCell>
                <mxCell id="3" value="数据结构" style="whiteSpace=wrap;html=1;rounded=1;" vertex="1" parent="1">
                    <mxGeometry x="630" y="170" width="70" height="30" as="geometry"/>
                </mxCell>
                <mxCell id="4" value="算法" style="whiteSpace=wrap;html=1;rounded=1;" vertex="1" parent="1">
                    <mxGeometry x="630" y="210" width="70" height="30" as="geometry"/>
                </mxCell>
            </root>
        </mxGraphModel>
    </diagram>
</mxfile>